<svg width="255" height="261" viewBox="0 0 255 261" fill="none" xmlns="http://www.w3.org/2000/svg">
<g clip-path="url(#clip0_362_36073)">
<path d="M156.348 146.728H81.1196C80.7503 146.728 80.3962 146.581 80.135 146.319C79.8738 146.058 79.727 145.704 79.7266 145.334V126.66C79.727 126.29 79.874 125.936 80.1351 125.674C80.3962 125.413 80.7503 125.266 81.1196 125.266H156.348C156.717 125.266 157.071 125.413 157.332 125.674C157.593 125.936 157.74 126.29 157.741 126.66V145.334C157.74 145.704 157.593 146.058 157.332 146.32C157.071 146.581 156.717 146.728 156.348 146.728V146.728ZM81.1196 125.823C80.8979 125.823 80.6854 125.911 80.5287 126.068C80.372 126.225 80.2838 126.438 80.2836 126.66V145.334C80.2838 145.556 80.372 145.769 80.5287 145.926C80.6854 146.083 80.8979 146.171 81.1196 146.171H156.348C156.57 146.171 156.782 146.083 156.939 145.926C157.096 145.769 157.184 145.556 157.184 145.334V126.66C157.184 126.438 157.096 126.225 156.939 126.068C156.782 125.911 156.57 125.823 156.348 125.823H81.1196Z" fill="#E6E6E6"/>
<path d="M104.389 131.992C104.131 131.992 103.883 132.095 103.7 132.278C103.517 132.461 103.414 132.709 103.414 132.968C103.414 133.227 103.517 133.475 103.7 133.658C103.883 133.841 104.131 133.944 104.389 133.944H150.362C150.62 133.954 150.872 133.861 151.062 133.685C151.252 133.509 151.364 133.265 151.374 133.006C151.384 132.747 151.291 132.495 151.115 132.305C150.939 132.115 150.695 132.003 150.437 131.993C150.422 131.993 150.408 131.992 150.394 131.993H104.389V131.992Z" fill="#E6E6E6"/>
<path d="M104.389 137.844C104.131 137.844 103.883 137.947 103.7 138.13C103.517 138.313 103.414 138.561 103.414 138.82C103.414 139.079 103.517 139.327 103.7 139.51C103.883 139.693 104.131 139.796 104.389 139.796H150.362C150.62 139.806 150.872 139.712 151.062 139.536C151.252 139.36 151.364 139.116 151.374 138.858C151.384 138.599 151.291 138.347 151.115 138.157C150.939 137.967 150.695 137.855 150.437 137.845C150.422 137.844 150.408 137.844 150.394 137.844H104.389V137.844Z" fill="#E6E6E6"/>
<path d="M156.348 177.853H81.1196C80.7503 177.853 80.3962 177.706 80.135 177.444C79.8738 177.183 79.727 176.829 79.7266 176.459V157.785C79.727 157.415 79.874 157.061 80.1351 156.799C80.3962 156.538 80.7503 156.391 81.1196 156.391H156.348C156.717 156.391 157.071 156.538 157.332 156.799C157.593 157.061 157.74 157.415 157.741 157.785V176.459C157.74 176.829 157.593 177.183 157.332 177.444C157.071 177.706 156.717 177.853 156.348 177.853ZM81.1196 156.948C80.8979 156.948 80.6854 157.036 80.5287 157.193C80.372 157.35 80.2838 157.563 80.2836 157.785V176.459C80.2838 176.681 80.372 176.894 80.5287 177.051C80.6854 177.208 80.8979 177.296 81.1196 177.296H156.348C156.57 177.296 156.782 177.208 156.939 177.051C157.096 176.894 157.184 176.681 157.184 176.459V157.785C157.184 157.563 157.096 157.35 156.939 157.193C156.782 157.036 156.57 156.948 156.348 156.948H81.1196Z" fill="#E6E6E6"/>
<path d="M104.389 163.219C104.131 163.219 103.883 163.322 103.7 163.505C103.517 163.688 103.414 163.936 103.414 164.195C103.414 164.454 103.517 164.702 103.7 164.885C103.883 165.068 104.131 165.171 104.389 165.171H150.362C150.617 165.169 150.861 165.068 151.042 164.888C151.224 164.709 151.327 164.466 151.332 164.21C151.336 163.955 151.24 163.709 151.065 163.523C150.889 163.338 150.648 163.229 150.394 163.219H104.389V163.219Z" fill="#E6E6E6"/>
<path d="M104.389 169.078C104.131 169.078 103.883 169.181 103.7 169.364C103.517 169.547 103.414 169.795 103.414 170.054C103.414 170.313 103.517 170.561 103.7 170.744C103.883 170.927 104.131 171.03 104.389 171.03H150.362C150.617 171.029 150.861 170.927 151.042 170.748C151.224 170.568 151.327 170.325 151.332 170.07C151.336 169.815 151.24 169.568 151.065 169.383C150.889 169.197 150.648 169.088 150.394 169.079H104.389V169.078Z" fill="#E6E6E6"/>
<path d="M156.348 209.087H81.1196C80.7503 209.087 80.3962 208.94 80.135 208.679C79.8738 208.417 79.727 208.063 79.7266 207.693V189.019C79.727 188.649 79.874 188.295 80.1351 188.034C80.3962 187.773 80.7503 187.625 81.1196 187.625H156.348C156.717 187.625 157.071 187.773 157.332 188.034C157.593 188.295 157.74 188.649 157.741 189.019V207.694C157.74 208.063 157.593 208.418 157.332 208.679C157.071 208.94 156.717 209.087 156.348 209.088V209.087ZM81.1196 188.182C80.8979 188.183 80.6854 188.271 80.5287 188.428C80.372 188.585 80.2838 188.797 80.2836 189.019V207.694C80.2838 207.916 80.372 208.128 80.5287 208.285C80.6854 208.442 80.8979 208.53 81.1196 208.53H156.348C156.57 208.53 156.782 208.442 156.939 208.285C157.096 208.128 157.184 207.916 157.184 207.694V189.019C157.184 188.797 157.096 188.585 156.939 188.428C156.782 188.271 156.57 188.183 156.348 188.182H81.1196Z" fill="#E6E6E6"/>
<path d="M104.389 194.445C104.131 194.445 103.883 194.548 103.7 194.731C103.517 194.914 103.414 195.162 103.414 195.421C103.414 195.68 103.517 195.928 103.7 196.111C103.883 196.294 104.131 196.397 104.389 196.397H150.362C150.49 196.402 150.618 196.382 150.738 196.337C150.858 196.293 150.968 196.225 151.062 196.138C151.156 196.051 151.232 195.946 151.285 195.83C151.339 195.713 151.369 195.587 151.374 195.459C151.379 195.331 151.358 195.203 151.314 195.083C151.27 194.963 151.202 194.853 151.115 194.758C151.028 194.664 150.923 194.588 150.807 194.535C150.69 194.481 150.565 194.451 150.437 194.446C150.422 194.446 150.408 194.446 150.394 194.446H104.389V194.445Z" fill="#E6E6E6"/>
<path d="M104.389 200.305C104.131 200.305 103.883 200.408 103.7 200.591C103.517 200.774 103.414 201.022 103.414 201.281C103.414 201.539 103.517 201.788 103.7 201.971C103.883 202.154 104.131 202.257 104.389 202.257H150.362C150.49 202.262 150.618 202.241 150.738 202.197C150.858 202.152 150.968 202.084 151.062 201.997C151.156 201.91 151.232 201.805 151.285 201.689C151.339 201.573 151.369 201.447 151.374 201.319C151.379 201.19 151.358 201.063 151.314 200.942C151.27 200.822 151.202 200.712 151.115 200.618C151.028 200.524 150.923 200.448 150.807 200.394C150.69 200.341 150.565 200.311 150.437 200.306C150.422 200.305 150.408 200.305 150.394 200.305H104.389V200.305Z" fill="#E6E6E6"/>
<path d="M253.836 261H1.16321C0.797198 261 0.5 260.828 0.5 260.617C0.5 260.406 0.797198 260.234 1.16321 260.234H253.837C254.203 260.234 254.5 260.406 254.5 260.617C254.5 260.828 254.202 261 253.836 261Z" fill="#E6E6E6"/>
<path d="M90.5073 141.742C93.7387 141.742 96.3583 139.12 96.3583 135.887C96.3583 132.653 93.7387 130.031 90.5073 130.031C87.2758 130.031 84.6562 132.653 84.6562 135.887C84.6562 139.12 87.2758 141.742 90.5073 141.742Z" fill="#52BAE6"/>
<path d="M87.7078 134.789C87.6405 134.789 87.5859 135.226 87.5859 135.765C87.5859 136.304 87.6405 136.741 87.7078 136.741H93.4611C93.5284 136.75 93.5841 136.32 93.5852 135.781C93.6225 135.446 93.5815 135.106 93.4651 134.789H87.7078V134.789Z" fill="#E6E6E6"/>
<path d="M90.5073 172.976C93.7387 172.976 96.3583 170.355 96.3583 167.121C96.3583 163.887 93.7387 161.266 90.5073 161.266C87.2758 161.266 84.6562 163.887 84.6562 167.121C84.6562 170.355 87.2758 172.976 90.5073 172.976Z" fill="#52BAE6"/>
<path d="M87.7078 166.023C87.6405 166.023 87.5859 166.46 87.5859 166.999C87.5859 167.538 87.6405 167.975 87.7078 167.975H93.4611C93.5284 167.984 93.5841 167.554 93.5852 167.016C93.6225 166.68 93.5815 166.341 93.4651 166.024H87.7078V166.023Z" fill="#E6E6E6"/>
<path d="M90.5073 204.211C93.7387 204.211 96.3583 201.589 96.3583 198.355C96.3583 195.122 93.7387 192.5 90.5073 192.5C87.2758 192.5 84.6562 195.122 84.6562 198.355C84.6562 201.589 87.2758 204.211 90.5073 204.211Z" fill="#52BAE6"/>
<path d="M87.7078 197.258C87.6405 197.258 87.5859 197.695 87.5859 198.234C87.5859 198.772 87.6405 199.21 87.7078 199.21H93.4611C93.5284 199.218 93.5841 198.789 93.5852 198.25C93.6225 197.915 93.5815 197.575 93.4651 197.258H87.7078V197.258Z" fill="#E6E6E6"/>
<path d="M136.725 94.0099C136.421 94.0109 136.123 93.9276 135.864 93.7692C135.605 93.6108 135.394 93.3835 135.256 93.1127C134.083 90.8162 132.462 88.7775 130.491 87.1163C128.519 85.4551 126.235 84.2048 123.774 83.4388C122.766 83.1328 121.738 82.8998 120.697 82.7415L120.484 82.7093L131.435 48.4453L131.62 48.4518C152.896 54.2371 165.068 71.3007 168.292 76.3926C168.415 76.5873 168.496 76.8056 168.529 77.0334C168.562 77.2612 168.547 77.4935 168.485 77.7152C168.424 77.9369 168.316 78.1432 168.169 78.3206C168.023 78.4981 167.84 78.6428 167.634 78.7454L137.464 93.835C137.235 93.9501 136.982 94.0099 136.725 94.0099Z" fill="#E6E6E6"/>
<path d="M195.61 192.24C195.693 191.887 195.853 191.556 196.078 191.271C196.302 190.987 196.587 190.755 196.911 190.592C197.235 190.429 197.591 190.339 197.953 190.329C198.316 190.318 198.676 190.388 199.009 190.532L204.967 184.031L206.081 188.478L200.251 193.969C199.973 194.512 199.504 194.935 198.935 195.156C198.366 195.377 197.735 195.381 197.163 195.168C196.591 194.955 196.116 194.539 195.83 193.999C195.544 193.459 195.465 192.833 195.61 192.24L195.61 192.24Z" fill="#FEB8B8"/>
<path d="M208.403 257.084H204.763L203.031 243.031H208.406L208.403 257.084Z" fill="#FEB8B8"/>
<path d="M209.333 255.898H202.163C200.951 255.899 199.789 256.38 198.932 257.238C198.075 258.095 197.594 259.258 197.594 260.471V260.62H209.332L209.333 255.898Z" fill="#2F2E41"/>
<path d="M229.311 253.474L225.907 254.767L219.305 242.244L224.328 240.336L229.311 253.474Z" fill="#FEB8B8"/>
<path d="M229.76 252.031L223.057 254.577C221.924 255.008 221.008 255.871 220.511 256.977C220.014 258.083 219.977 259.341 220.407 260.475L220.46 260.614L231.435 256.445L229.76 252.031Z" fill="#2F2E41"/>
<path d="M217.334 210.344L220.351 226.59C220.351 226.59 228.539 249.45 227.965 250.025C227.39 250.6 219.488 252.613 219.92 251.319C220.351 250.025 210.438 230.616 210.438 230.616L217.334 210.344Z" fill="#2F2E41"/>
<path d="M205.099 180.82C205.099 180.82 199.008 188.788 199.806 189.223C200.605 189.658 203.696 191.962 203.696 191.962L206.842 183.323L205.099 180.82Z" fill="#E4E4E4"/>
<path d="M203.391 188.858C203.391 188.858 202.385 196.335 202.816 197.916C203.247 199.498 202.96 244.355 202.673 245.073C202.386 245.792 201.523 248.236 201.955 249.386C202.386 250.536 208.276 253.412 209.138 252.406C210 251.399 216.322 214.737 216.322 214.737C216.322 214.737 225.229 192.596 223.218 190.44C221.206 188.284 203.391 188.858 203.391 188.858Z" fill="#2F2E41"/>
<path d="M216.321 140.808C220.209 140.808 223.361 137.654 223.361 133.764C223.361 129.873 220.209 126.719 216.321 126.719C212.433 126.719 209.281 129.873 209.281 133.764C209.281 137.654 212.433 140.808 216.321 140.808Z" fill="#FEB8B8"/>
<path d="M208.963 149.686C209.14 148.545 209.707 147.501 210.567 146.732L211.851 142.805H219.394L221.496 146.105C223.768 147.085 225.453 148.639 225.517 150.47C225.864 151.686 224.367 190.295 223.937 191.732C223.81 192.151 222.092 192.375 219.675 192.474C217.46 192.565 214.66 192.552 211.972 192.49C207.521 192.386 203.372 192.148 202.674 192.02C201.095 191.733 208.806 150.593 208.963 149.686Z" fill="#E4E4E4"/>
<path d="M215.632 200.886C215.937 200.69 216.196 200.43 216.391 200.124C216.585 199.818 216.71 199.472 216.756 199.112C216.803 198.753 216.77 198.387 216.66 198.041C216.55 197.695 216.366 197.378 216.12 197.111L220.283 189.336L215.722 189.753L212.468 197.072C212.047 197.515 211.803 198.097 211.783 198.708C211.762 199.319 211.966 199.916 212.356 200.386C212.747 200.856 213.296 201.167 213.899 201.259C214.503 201.351 215.12 201.218 215.632 200.885L215.632 200.886Z" fill="#FEB8B8"/>
<path d="M216.325 145.44C216.325 145.44 209.717 148.172 212.159 155.073C214.601 161.975 217.331 170.17 217.331 170.17C217.331 170.17 213.883 188.716 213.883 189.436C213.883 190.156 211.728 194.037 212.59 194.756C213.451 195.475 219.198 196.912 219.342 196.193C219.782 194.537 220.31 192.906 220.922 191.305C221.21 190.73 227.962 172.758 227.099 171.177C226.465 170.013 225.908 159.35 225.658 153.8C225.601 152.216 225.132 150.675 224.298 149.328C223.464 147.98 222.295 146.874 220.904 146.116C219.566 145.404 218.006 145.02 216.325 145.44Z" fill="#E4E4E4"/>
<path d="M219.032 136.916C218.498 136.669 217.878 136.618 217.3 136.465C215.232 135.916 213.846 133.872 214.289 132.023C214.37 131.788 214.407 131.539 214.397 131.291C214.32 130.743 213.679 130.389 213.064 130.264C212.449 130.138 211.795 130.157 211.208 129.955C210.782 129.804 210.406 129.541 210.117 129.195C209.828 128.848 209.638 128.429 209.567 127.984C209.476 127.118 209.697 126.248 210.189 125.53L210.411 126.088C210.741 125.85 210.993 125.52 211.137 125.14C211.378 125.169 211.608 125.257 211.807 125.397C212.006 125.536 212.167 125.723 212.276 125.94C212.633 126.124 212.684 125.37 213.078 125.258C213.249 125.239 213.422 125.277 213.57 125.365C214.363 125.689 215.285 125.412 216.137 125.233C217.615 124.924 219.142 124.922 220.621 125.228C221.601 125.433 222.571 125.788 223.272 126.42C223.809 126.949 224.231 127.583 224.511 128.283C225.263 129.937 225.76 131.727 225.512 133.494C225.286 134.976 224.589 136.346 223.523 137.401C222.956 137.972 221.103 139.967 220.088 139.627C218.81 139.199 220.536 137.611 219.032 136.916Z" fill="#2F2E41"/>
<path d="M118.35 100.532C119.967 100.532 121.278 99.2204 121.278 97.6021C121.278 95.9838 119.967 94.6719 118.35 94.6719C116.733 94.6719 115.422 95.9838 115.422 97.6021C115.422 99.2204 116.733 100.532 118.35 100.532Z" fill="#3F3D56"/>
<path d="M98.6973 93.9692C98.4293 93.9688 98.1654 93.9029 97.9287 93.7771L67.9332 77.9413C67.7342 77.8362 67.5589 77.6915 67.4179 77.516C67.277 77.3405 67.1735 77.138 67.1138 76.921C67.0541 76.7039 67.0394 76.4769 67.0707 76.254C67.1021 76.031 67.1787 75.8168 67.2959 75.6247C71.3026 69.1978 76.3766 63.5027 82.299 58.785C92.6576 50.5692 104.44 46.4473 117.318 46.5165C122.148 46.5379 126.954 47.1891 131.616 48.4536L131.8 48.5037L120.847 82.7657L120.693 82.7424C119.706 82.5935 118.711 82.5052 117.714 82.4781C106.569 82.1633 101.739 89.7582 100.179 93.0377C100.085 93.2366 99.9518 93.4143 99.7869 93.5598C99.622 93.7052 99.4292 93.8155 99.2203 93.8839C99.0517 93.9402 98.8751 93.969 98.6973 93.9692Z" fill="#52BAE6"/>
<path d="M131.567 48.6328L123.823 83.2681C122.806 82.9593 121.769 82.7243 120.719 82.5648L131.564 48.6328H131.567Z" fill="#3F3D56"/>
</g>
<defs>
<clipPath id="clip0_362_36073">
<rect width="254" height="261" fill="white" transform="translate(0.5)"/>
</clipPath>
</defs>
</svg>
