<svg width="238" height="61" viewBox="0 0 238 61" fill="none" xmlns="http://www.w3.org/2000/svg">
    <path fill-rule="evenodd" clip-rule="evenodd" d="M22.0334 43.7241C22.0334 43.7241 22.0334 43.7241 22.0334 43.7241L22.0483 43.7376L22.0952 43.7796C22.1367 43.8167 22.1986 43.872 22.2791 43.9434C22.4402 44.0863 22.6757 44.2939 22.9717 44.5514C23.5641 45.0665 24.3978 45.7801 25.3623 46.5732C27.3012 48.1675 29.7314 50.0522 31.7835 51.3007C34.7131 53.0832 38.0428 53.5584 41.2892 51.7751C43.5935 50.5093 44.7513 47.8773 44.2845 45.2222C44.0057 43.6372 42.838 42.0978 41.3854 41.1198C39.8549 40.0893 37.8391 40.1274 36.2032 41.1609C34.5122 42.2292 33.7027 44.1434 34.3516 45.6752C34.6842 46.4604 35.4215 47.0442 36.313 47.2823C37.2044 47.5205 38.1399 47.3834 38.8282 46.8688C39.2717 46.5372 39.8996 46.6268 40.2306 47.0689C40.5617 47.511 40.4705 48.1382 40.027 48.4698C38.7688 49.4105 37.1765 49.5858 35.7908 49.2157C34.4053 48.8456 33.1163 47.9005 32.5054 46.4584C31.3542 43.7406 32.9049 40.879 35.1345 39.4704C37.3725 38.0564 40.2526 37.9408 42.5085 39.4597C44.2873 40.6574 45.8628 42.6218 46.2585 44.8717C46.8598 48.2915 45.3777 51.8111 42.2521 53.528C38.239 55.7325 34.1341 55.0768 30.7378 53.0104C28.5593 51.6849 26.0395 49.7254 24.0861 48.1192C23.1044 47.312 22.2564 46.5861 21.6535 46.0619C21.352 45.7997 21.1115 45.5877 20.946 45.4408C20.8632 45.3674 20.7992 45.3102 20.7556 45.2712L20.7058 45.2266L20.6884 45.2109C20.6883 45.2109 20.688 45.2105 21.3607 44.4673L20.688 45.2105C20.2778 44.8405 20.2464 44.2078 20.6179 43.7973C20.9895 43.3869 21.6232 43.3541 22.0334 43.7241Z" fill="#AEB5BC"/>
    <path d="M7.11693 31.9306C8.83805 28.6207 12.2585 26.5441 15.9891 26.5441H18.1585C24.8022 26.5441 29.5989 32.9032 27.7737 39.2913L27.4449 40.4422C25.9276 45.7525 20.3928 48.8274 15.0824 47.3102L12.9589 46.7035C6.87628 44.9656 3.91543 38.0873 6.83398 32.4747L7.11693 31.9306Z" fill="#C4C4C4"/>
    <rect width="16.1354" height="6.71808" rx="3.35904" transform="matrix(-0.814941 0.579544 0.579544 0.814941 29.7693 34.934)" fill="#9BA1A6"/>
    <rect width="12.3638" height="5.14776" rx="2.57388" transform="matrix(-0.814941 0.579544 0.579544 0.814941 27.7272 28.8878)" fill="#9BA1A6"/>
    <path fill-rule="evenodd" clip-rule="evenodd" d="M45.3619 0.945801L49.4852 2.81768L48.5492 4.87933L46.4876 3.94339C48.5492 4.87933 48.5491 4.87964 48.5489 4.88002L48.547 4.88431L48.542 4.89517L48.5241 4.93422C48.5087 4.96787 48.4862 5.01661 48.457 5.07969C48.3985 5.20584 48.3127 5.38935 48.2012 5.6241C47.9782 6.0935 47.6523 6.76829 47.236 7.59928C46.4041 9.25989 45.2079 11.5514 43.7486 14.0781C40.8655 19.0701 36.825 25.2128 32.4264 29.1256C30.4091 30.9201 28.2471 31.8998 26.5033 32.6899C26.2066 32.8244 25.922 32.9533 25.6523 33.0799C23.7609 33.9673 22.3559 34.8098 21.2254 36.578C19.6667 39.0161 19.3381 41.2333 19.4886 43.7388C19.5668 45.0402 19.7732 46.3974 20.0205 47.9445C20.0387 48.0587 20.0572 48.1738 20.0758 48.2899C20.3046 49.7174 20.5563 51.2869 20.7219 52.9664L20.9442 55.2196L16.4378 55.6641L16.2155 53.4109C16.0639 51.874 15.8331 50.4332 15.6013 48.9862C15.5838 48.8773 15.5664 48.7683 15.5489 48.6593C15.3046 47.1306 15.0619 45.5651 14.9685 44.0103C14.7759 40.8034 15.214 37.5741 17.4102 34.1389C19.2355 31.2838 21.5823 29.9876 23.7288 28.9804C24.0726 28.8191 24.406 28.6667 24.7306 28.5183C26.4673 27.7243 27.9511 27.046 29.4167 25.7423C33.2405 22.3407 36.9831 16.7381 39.8273 11.8134C41.2317 9.38181 42.3853 7.17212 43.1873 5.57112C43.588 4.77131 43.9 4.12519 44.1108 3.68139C44.2161 3.45953 44.2961 3.28837 44.3492 3.17399C44.3757 3.1168 44.3955 3.07382 44.4084 3.0458L44.4224 3.01511L44.4259 3.00745L45.3619 0.945801Z" fill="#877171"/>
    <rect x="5.07748" y="33.5904" width="16.1354" height="6.71808" rx="3.35904" transform="rotate(35.4184 5.07748 33.5904)" fill="#9BA1A6"/>
    <rect x="10.4519" y="28.8878" width="12.3638" height="5.14776" rx="2.57388" transform="rotate(35.4184 10.4519 28.8878)" fill="#9BA1A6"/>
    <path d="M20.2148 29.885C20.308 29.8918 20.4028 29.8955 20.4994 29.8955C21.5473 29.8955 22.3529 29.5869 23.1253 29.291C23.8369 29.0184 24.5205 28.7566 25.3396 28.7566C26.8532 28.7566 28.7613 28.0831 30.1939 27.5775C30.9171 27.3223 31.5191 27.1098 31.8881 27.0483C32.0825 26.8835 32.2802 26.7168 32.4801 26.5481L32.4827 26.5459C36.0802 23.5113 40.4297 19.8424 40.4297 15.2411C40.4297 5.73253 31.634 0 20.7841 0C20.5937 0 20.4039 0.00176515 20.2148 0.00528488C20.0257 0.00176515 19.836 0 19.6456 0C8.79563 0 0 5.73253 0 15.2411C0 19.8424 4.34942 23.5113 7.94696 26.5459C8.1478 26.7153 8.3463 26.8828 8.54156 27.0483C8.91052 27.1098 9.51257 27.3223 10.2358 27.5775C11.6684 28.0831 13.5765 28.7566 15.0901 28.7566C15.9092 28.7566 16.5927 29.0184 17.3043 29.291C18.0768 29.5869 18.8824 29.8955 19.9303 29.8955C20.0269 29.8955 20.1216 29.8918 20.2148 29.885Z" fill="#9BA1A6"/>
    <circle cx="11.3892" cy="17.3688" r="10.2499" fill="#C4C4C4"/>
    <circle cx="11.3892" cy="17.3679" r="8.54156" fill="#FFD8D3"/>
    <circle cx="11.3892" cy="17.3678" r="6.83325" fill="#6FBF4A"/>
    <circle cx="11.3892" cy="17.3679" r="5.12494" fill="#222529"/>
    <circle cx="14.2366" cy="13.3818" r="1.13887" fill="white"/>
    <circle cx="30.1797" cy="17.3678" r="10.2499" fill="#C4C4C4"/>
    <circle cx="30.1798" cy="17.3678" r="8.54156" fill="#FFD8D3"/>
    <path d="M18.9565 23.3399C18.8674 22.2707 19.7111 21.3538 20.784 21.3538C21.8568 21.3538 22.7006 22.2707 22.6115 23.3399L22.4923 24.7704H19.0757L18.9565 23.3399Z" fill="#C4C4C4"/>
    <circle cx="30.1799" cy="17.3677" r="6.83325" fill="#6FBF4A"/>
    <circle cx="30.1803" cy="17.3678" r="5.12494" fill="#222529"/>
    <circle cx="33.0278" cy="13.3818" r="1.13887" fill="white"/>
    <path d="M21.8032 26.1498C21.3835 26.9892 20.1856 26.9892 19.7659 26.1498L19.0762 24.7704L22.4929 24.7704L21.8032 26.1498Z" fill="#FFD8D3"/>
    <path d="M5.21692 1.99304C6.59078 3.08999 7.40347 4.27079 7.40347 4.27079C7.40347 4.27079 6.42463 5.07572 5.69516 5.69438C4.97562 6.30463 3.50861 8.25685 3.50861 8.25685C3.50861 8.25685 2.93917 7.68742 1.23086 5.40967C-0.477453 3.13192 0.0919843 0.284729 0.0919843 0.284729C0.0919843 0.284729 3.5683 0.676698 5.21692 1.99304Z" fill="#FFD8D3"/>
    <path d="M35.7839 1.99304C34.4101 3.08999 33.5974 4.27079 33.5974 4.27079C33.5974 4.27079 34.5762 5.07572 35.3057 5.69438C36.0252 6.30463 37.4922 8.25685 37.4922 8.25685C37.4922 8.25685 38.0617 7.68742 39.77 5.40967C41.4783 3.13192 40.9089 0.284729 40.9089 0.284729C40.9089 0.284729 37.4326 0.676698 35.7839 1.99304Z" fill="#FFD8D3"/>
    <rect x="21.7545" y="37.0398" width="0.696211" height="4.17726" rx="0.348105" transform="rotate(110.076 21.7545 37.0398)" fill="#FFD8D3"/>
    <rect x="21.4356" y="37.9117" width="0.696211" height="4.17726" rx="0.348105" transform="rotate(110.076 21.4356 37.9117)" fill="#FFD8D3"/>
    <rect x="21.1168" y="38.7836" width="0.696211" height="4.17726" rx="0.348105" transform="rotate(110.076 21.1168 38.7836)" fill="#FFD8D3"/>
    <rect x="20.7979" y="39.6555" width="0.696211" height="4.17726" rx="0.348105" transform="rotate(110.076 20.7979 39.6555)" fill="#FFD8D3"/>
    <rect x="19.5961" y="44.3764" width="0.881023" height="5.28614" rx="0.440511" transform="rotate(110.076 19.5961 44.3764)" fill="#FFD8D3"/>
    <rect x="19.1917" y="45.4799" width="0.881023" height="5.28614" rx="0.440511" transform="rotate(110.076 19.1917 45.4799)" fill="#FFD8D3"/>
    <rect x="18.7889" y="46.5832" width="0.881023" height="5.28614" rx="0.440511" transform="rotate(110.076 18.7889 46.5832)" fill="#FFD8D3"/>
    <rect x="18.3861" y="47.6865" width="0.881023" height="5.28614" rx="0.440511" transform="rotate(110.076 18.3861 47.6865)" fill="#FFD8D3"/>
    <path d="M75.4036 32.816H64.7476L62.7676 37.712H55.4956L66.6196 12.512H73.6396L84.7996 37.712H77.3836L75.4036 32.816ZM73.3156 27.56L70.0756 19.496L66.8356 27.56H73.3156Z" fill="#6FBF4A"/>
    <path d="M98.3404 12.512C100.62 12.512 102.6 12.896 104.28 13.664C105.96 14.408 107.256 15.488 108.168 16.904C109.08 18.296 109.536 19.94 109.536 21.836C109.536 23.732 109.08 25.376 108.168 26.768C107.256 28.16 105.96 29.24 104.28 30.008C102.6 30.752 100.62 31.124 98.3404 31.124H93.9484V37.712H86.8204V12.512H98.3404ZM97.9084 25.508C99.3724 25.508 100.476 25.196 101.22 24.572C101.964 23.924 102.336 23.012 102.336 21.836C102.336 20.66 101.964 19.748 101.22 19.1C100.476 18.452 99.3724 18.128 97.9084 18.128H93.9484V25.508H97.9084Z" fill="#6FBF4A"/>
    <path d="M113.012 12.512H120.14V37.712H113.012V12.512Z" fill="#6FBF4A"/>
    <path d="M140.048 37.892C137.576 37.892 135.344 37.34 133.352 36.236C131.384 35.132 129.824 33.608 128.672 31.664C127.544 29.72 126.98 27.536 126.98 25.112C126.98 22.688 127.544 20.504 128.672 18.56C129.824 16.616 131.384 15.092 133.352 13.988C135.344 12.884 137.576 12.332 140.048 12.332C141.872 12.332 143.552 12.632 145.088 13.232C146.624 13.808 147.932 14.672 149.012 15.824L147.86 17.012C145.844 15.02 143.264 14.024 140.12 14.024C138.008 14.024 136.088 14.504 134.36 15.464C132.632 16.424 131.276 17.756 130.292 19.46C129.308 21.14 128.816 23.024 128.816 25.112C128.816 27.2 129.308 29.096 130.292 30.8C131.276 32.48 132.632 33.8 134.36 34.76C136.088 35.72 138.008 36.2 140.12 36.2C143.24 36.2 145.82 35.192 147.86 33.176L149.012 34.364C147.932 35.516 146.612 36.392 145.052 36.992C143.516 37.592 141.848 37.892 140.048 37.892Z" fill="white"/>
    <path d="M154.586 11H156.386V37.712H154.586V11Z" fill="white"/>
    <path d="M170.308 18.776C172.636 18.776 174.424 19.376 175.672 20.576C176.92 21.752 177.544 23.492 177.544 25.796V37.712H175.816V34.364C175.216 35.468 174.34 36.332 173.188 36.956C172.036 37.556 170.656 37.856 169.048 37.856C166.96 37.856 165.304 37.364 164.08 36.38C162.88 35.396 162.28 34.1 162.28 32.492C162.28 30.932 162.832 29.672 163.936 28.712C165.064 27.728 166.852 27.236 169.3 27.236H175.744V25.724C175.744 23.972 175.264 22.64 174.304 21.728C173.368 20.816 171.988 20.36 170.164 20.36C168.916 20.36 167.716 20.576 166.564 21.008C165.436 21.44 164.476 22.016 163.684 22.736L162.784 21.44C163.72 20.6 164.848 19.952 166.168 19.496C167.488 19.016 168.868 18.776 170.308 18.776ZM169.3 36.38C170.86 36.38 172.18 36.02 173.26 35.3C174.364 34.58 175.192 33.536 175.744 32.168V28.64H169.336C167.488 28.64 166.144 28.976 165.304 29.648C164.488 30.32 164.08 31.244 164.08 32.42C164.08 33.644 164.536 34.616 165.448 35.336C166.36 36.032 167.644 36.38 169.3 36.38Z" fill="white"/>
    <path d="M186.689 23.024C187.265 21.656 188.165 20.612 189.389 19.892C190.613 19.148 192.101 18.776 193.853 18.776V20.54L193.421 20.504C191.333 20.504 189.701 21.164 188.525 22.484C187.349 23.78 186.761 25.592 186.761 27.92V37.712H184.961V18.92H186.689V23.024Z" fill="white"/>
    <path d="M198.812 18.92H200.612V37.712H198.812V18.92ZM199.712 14.348C199.304 14.348 198.956 14.216 198.668 13.952C198.38 13.664 198.236 13.316 198.236 12.908C198.236 12.5 198.38 12.152 198.668 11.864C198.956 11.576 199.304 11.432 199.712 11.432C200.12 11.432 200.468 11.576 200.756 11.864C201.044 12.128 201.188 12.464 201.188 12.872C201.188 13.28 201.044 13.628 200.756 13.916C200.468 14.204 200.12 14.348 199.712 14.348Z" fill="white"/>
    <path d="M217.523 36.524C217.067 36.956 216.491 37.292 215.795 37.532C215.123 37.748 214.415 37.856 213.671 37.856C212.039 37.856 210.779 37.412 209.891 36.524C209.003 35.612 208.559 34.352 208.559 32.744V20.468H205.103V18.92H208.559V14.816H210.359V18.92H216.335V20.468H210.359V32.564C210.359 33.788 210.647 34.724 211.223 35.372C211.823 35.996 212.699 36.308 213.851 36.308C215.027 36.308 215.999 35.96 216.767 35.264L217.523 36.524Z" fill="white"/>
    <path d="M237.275 18.92L227.627 40.268C226.907 41.924 226.067 43.1 225.107 43.796C224.171 44.492 223.055 44.84 221.759 44.84C220.895 44.84 220.079 44.696 219.311 44.408C218.567 44.12 217.931 43.7 217.403 43.148L218.303 41.78C219.263 42.764 220.427 43.256 221.795 43.256C222.707 43.256 223.487 43.004 224.135 42.5C224.783 41.996 225.383 41.132 225.935 39.908L226.943 37.64L218.483 18.92H220.391L227.915 35.732L235.439 18.92H237.275Z" fill="white"/>
</svg>
