<svg width="271" height="189" viewBox="0 0 271 189" fill="none" xmlns="http://www.w3.org/2000/svg">
    <g clip-path="url(#clip0_4840_380741)">
        <path d="M223.954 161.573C225.05 152.718 230.512 143.994 238.918 141.112C235.603 150.226 235.604 160.225 238.92 169.338C240.212 172.848 242.013 176.617 240.798 180.155C240.042 182.356 238.192 184.04 236.125 185.093C234.058 186.146 231.763 186.648 229.498 187.14L229.052 187.51C225.455 179.352 222.858 170.428 223.954 161.573Z" fill="#E8EDF2"/>
        <path d="M239.002 141.28C234.107 146.79 231.064 153.71 230.306 161.056C230.115 162.635 230.173 164.234 230.478 165.795C230.823 167.305 231.565 168.695 232.626 169.82C233.595 170.889 234.709 171.87 235.402 173.157C235.747 173.821 235.948 174.55 235.992 175.298C236.037 176.046 235.924 176.794 235.66 177.495C235.048 179.258 233.842 180.694 232.615 182.058C231.251 183.573 229.812 185.124 229.232 187.132C229.162 187.375 228.79 187.251 228.86 187.009C229.869 183.515 233.244 181.531 234.853 178.385C235.605 176.917 235.92 175.213 235.216 173.663C234.6 172.308 233.452 171.296 232.462 170.222C231.411 169.14 230.64 167.815 230.215 166.364C229.833 164.825 229.714 163.23 229.863 161.65C230.144 158.088 230.98 154.592 232.342 151.29C233.875 147.514 236.04 144.028 238.743 140.985C238.91 140.797 239.168 141.093 239.002 141.28H239.002Z" fill="white"/>
        <path d="M230.411 158.676C229.201 158.381 228.136 157.664 227.404 156.652C226.672 155.64 226.322 154.4 226.416 153.153C226.436 152.901 226.827 152.92 226.808 153.173C226.718 154.334 227.044 155.489 227.727 156.43C228.41 157.37 229.406 158.035 230.534 158.303C230.779 158.361 230.655 158.734 230.411 158.676V158.676Z" fill="white"/>
        <path d="M232.063 169.342C234.248 168.032 235.861 165.942 236.58 163.49C236.651 163.247 237.023 163.371 236.952 163.613C236.199 166.164 234.516 168.335 232.24 169.694C232.022 169.823 231.848 169.471 232.063 169.342V169.342Z" fill="white"/>
        <path d="M234.238 147.887C234.682 148.099 235.172 148.197 235.663 148.172C236.155 148.147 236.632 147.999 237.053 147.743C237.268 147.611 237.443 147.963 237.229 148.094C236.763 148.375 236.235 148.537 235.693 148.566C235.15 148.595 234.608 148.49 234.115 148.26C234.067 148.242 234.027 148.207 234.004 148.161C233.981 148.114 233.976 148.061 233.991 148.012C234.007 147.962 234.042 147.921 234.089 147.898C234.135 147.875 234.189 147.87 234.238 147.887V147.887Z" fill="white"/>
        <path d="M264.541 156.928C264.409 157.014 264.277 157.1 264.145 157.19C262.374 158.36 260.702 159.672 259.143 161.113C259.021 161.223 258.898 161.336 258.779 161.448C255.061 164.962 252.024 169.138 249.823 173.766C248.948 175.608 248.215 177.514 247.629 179.468C246.819 182.166 246.155 185.157 244.553 187.364C244.388 187.596 244.209 187.818 244.018 188.028H229.537C229.504 188.011 229.471 187.998 229.438 187.981L228.859 188.008C228.883 187.905 228.909 187.799 228.932 187.696C228.945 187.636 228.962 187.577 228.975 187.517C228.985 187.477 228.995 187.437 229.001 187.401C229.005 187.387 229.008 187.374 229.011 187.364C229.018 187.328 229.028 187.294 229.035 187.261C229.18 186.667 229.33 186.073 229.484 185.479C229.484 185.476 229.484 185.476 229.487 185.472C230.673 180.948 232.246 176.484 234.443 172.402C234.509 172.279 234.575 172.153 234.648 172.03C235.648 170.195 236.796 168.446 238.081 166.799C238.787 165.899 239.538 165.036 240.331 164.213C242.383 162.09 244.756 160.305 247.361 158.923C252.555 156.168 258.568 155.112 264.119 156.795C264.26 156.838 264.399 156.881 264.541 156.928Z" fill="#E8EDF2"/>
        <path d="M264.508 157.113C257.297 158.552 250.721 162.237 245.713 167.644C244.614 168.789 243.702 170.101 243.01 171.531C242.381 172.946 242.14 174.504 242.313 176.045C242.446 177.484 242.747 178.941 242.529 180.387C242.407 181.126 242.13 181.83 241.718 182.454C241.305 183.078 240.766 183.608 240.136 184.007C238.591 185.045 236.767 185.463 234.969 185.809C232.973 186.194 230.894 186.562 229.228 187.814C229.026 187.966 228.804 187.642 229.005 187.491C231.903 185.312 235.788 185.769 238.958 184.231C240.438 183.513 241.711 182.343 242.077 180.679C242.398 179.225 242.088 177.722 241.941 176.266C241.751 174.766 241.928 173.242 242.459 171.827C243.076 170.366 243.937 169.022 245.003 167.851C247.362 165.176 250.125 162.89 253.191 161.078C256.678 158.989 260.496 157.516 264.478 156.721C264.724 156.672 264.753 157.064 264.508 157.113V157.113Z" fill="white"/>
        <path d="M247.224 165.807C246.435 164.84 246.014 163.622 246.036 162.372C246.058 161.121 246.522 159.92 247.344 158.981C247.511 158.792 247.812 159.044 247.645 159.233C246.877 160.106 246.445 161.225 246.427 162.39C246.409 163.554 246.806 164.687 247.546 165.583C247.706 165.778 247.384 166.001 247.224 165.807V165.807Z" fill="white"/>
        <path d="M242.151 175.324C244.681 175.599 247.221 174.906 249.265 173.383C249.467 173.232 249.69 173.555 249.488 173.706C247.358 175.287 244.713 176.003 242.081 175.711C241.83 175.683 241.902 175.296 242.151 175.324V175.324Z" fill="white"/>
        <path d="M256.746 159.506C256.973 159.944 257.306 160.319 257.713 160.596C258.121 160.873 258.59 161.044 259.08 161.094C259.331 161.119 259.259 161.506 259.01 161.481C258.469 161.424 257.951 161.234 257.5 160.929C257.049 160.623 256.68 160.212 256.424 159.73C256.396 159.687 256.386 159.634 256.395 159.583C256.404 159.533 256.432 159.487 256.473 159.456C256.516 159.427 256.569 159.416 256.62 159.425C256.671 159.434 256.716 159.464 256.746 159.506Z" fill="white"/>
        <path d="M177.183 116.869C177.483 116.558 177.711 116.185 177.851 115.776C177.992 115.366 178.041 114.931 177.996 114.501C177.951 114.07 177.813 113.655 177.591 113.284C177.369 112.913 177.069 112.596 176.711 112.354L179.388 102.184L174.231 103.926L172.479 113.317C172.115 113.948 171.993 114.69 172.137 115.404C172.281 116.118 172.681 116.754 173.261 117.192C173.841 117.63 174.56 117.839 175.283 117.779C176.006 117.72 176.682 117.396 177.183 116.869V116.869Z" fill="#9E616A"/>
        <path d="M201.046 185.184L197.453 185.184L195.744 171.263L201.047 171.263L201.046 185.184Z" fill="#9E616A"/>
        <path d="M201.962 188.683L190.378 188.683V188.536C190.378 187.334 190.853 186.182 191.699 185.333C192.544 184.483 193.691 184.006 194.887 184.006H194.887L201.963 184.006L201.962 188.683Z" fill="#222529"/>
        <path d="M184.05 185.184L180.457 185.184L178.748 171.263L184.05 171.263L184.05 185.184Z" fill="#9E616A"/>
        <path d="M184.966 188.683L173.382 188.683V188.536C173.382 187.334 173.857 186.182 174.703 185.333C175.548 184.483 176.695 184.006 177.891 184.006H177.891L184.966 184.006L184.966 188.683Z" fill="#222529"/>
        <path d="M182.051 101.305L180.672 101.687C180.672 101.687 177.07 125.151 176.777 137.516C176.483 149.88 177.656 181.086 177.656 181.086H185.275L191.429 128.095L194.359 181.086H202.565C202.565 181.086 208.426 111.609 205.788 106.015C203.151 100.422 182.051 101.305 182.051 101.305Z" fill="#222529"/>
        <path d="M193.043 59.9028C196.845 59.9028 199.927 56.8063 199.927 52.9866C199.927 49.1668 196.845 46.0703 193.043 46.0703C189.24 46.0703 186.158 49.1668 186.158 52.9866C186.158 56.8063 189.24 59.9028 193.043 59.9028Z" fill="#9E616A"/>
        <path d="M210.477 68.9208L199.792 61.9053L188.719 62.3433L177.949 68.332L182.052 91.295L180.294 104.543C180.294 104.543 196.118 102.776 199.635 105.426C201.688 106.998 204.111 108.012 206.668 108.37L206.082 85.7014L210.477 68.9208Z" fill="#27446E"/>
        <path d="M180 68.0384L178.893 67.8076L177.949 68.3328C177.949 68.3328 175.311 71.8656 175.311 75.104C175.311 78.3423 172.088 109.548 172.088 109.548L177.949 112.198L182.638 87.763L180 68.0384Z" fill="#27446E"/>
        <path d="M199.072 47.9154C199.072 47.9154 200.873 44.4573 196.912 44.1429C196.912 44.1429 193.534 41.0653 190.092 43.5803C190.092 43.5803 188.214 43.5803 187.188 45.7148C187.188 45.7148 185.711 45.1522 185.386 46.6579C185.386 46.6579 184.306 49.8017 185.386 52.631C186.467 55.4604 186.826 55.7748 186.826 55.7748C186.826 55.7748 185.05 49.8429 189.372 49.5285C193.694 49.2141 198.531 46.5007 198.891 49.9589C199.251 53.417 199.793 54.269 199.793 54.269C199.793 54.269 203.214 49.3301 199.072 47.9154Z" fill="#222529"/>
        <path d="M110.108 88.6034H24.8311V24.4248H110.108V88.6034Z" fill="white"/>
        <path d="M110.108 88.6034H24.8311V24.4248H110.108V88.6034ZM25.7102 25.308V87.7202H109.229V25.308H25.7102Z" fill="#DFE2E5"/>
        <path d="M67.4435 72.9468C76.4112 72.9468 83.6809 65.6435 83.6809 56.6345C83.6809 47.6255 76.4112 40.3223 67.4435 40.3223C58.4758 40.3223 51.2061 47.6255 51.2061 56.6345C51.2061 65.6435 58.4758 72.9468 67.4435 72.9468Z" fill="#52BAE6"/>
        <path d="M74.1857 55.2643H68.665V49.7182C68.665 49.372 68.5282 49.0401 68.2845 48.7953C68.0409 48.5506 67.7105 48.4131 67.3659 48.4131C67.0214 48.4131 66.691 48.5506 66.4474 48.7953C66.2037 49.0401 66.0669 49.372 66.0669 49.7182V55.2643H60.5462C60.2016 55.2643 59.8712 55.4018 59.6276 55.6465C59.3839 55.8913 59.2471 56.2232 59.2471 56.5694C59.2471 56.9155 59.3839 57.2474 59.6276 57.4922C59.8712 57.7369 60.2016 57.8744 60.5462 57.8744H66.0669V63.4206C66.0669 63.7667 66.2037 64.0987 66.4474 64.3434C66.691 64.5881 67.0214 64.7256 67.3659 64.7256C67.7105 64.7256 68.0409 64.5881 68.2845 64.3434C68.5282 64.0987 68.665 63.7667 68.665 63.4206V57.8744H74.1857C74.5303 57.8744 74.8607 57.7369 75.1043 57.4922C75.3479 57.2474 75.4848 56.9155 75.4848 56.5694C75.4848 56.2232 75.3479 55.8913 75.1043 55.6465C74.8607 55.4018 74.5303 55.2643 74.1857 55.2643Z" fill="white"/>
        <path d="M31.8656 24.1565H0V0H31.8656V24.1565Z" fill="white"/>
        <path d="M31.8656 24.1565H0V0H31.8656V24.1565ZM0.586094 23.5677H31.2795V0.588795H0.586094V23.5677Z" fill="#DFE2E5"/>
        <path d="M27.6627 6.5791H4.20312V8.1503H27.6627V6.5791Z" fill="#DFE2E5"/>
        <path d="M27.6627 11.293H4.20312V12.8642H27.6627V11.293Z" fill="#DFE2E5"/>
        <path d="M27.6627 16.0059H4.20312V17.5771H27.6627V16.0059Z" fill="#DFE2E5"/>
        <path d="M243.739 188.725H211.873V164.568H243.739V188.725Z" fill="white"/>
        <path d="M243.739 188.725H211.873V164.568H243.739V188.725ZM212.459 188.136H243.153V165.157H212.459V188.136Z" fill="#DFE2E5"/>
        <path d="M239.536 171.147H216.076V172.719H239.536V171.147Z" fill="#DFE2E5"/>
        <path d="M239.536 175.86H216.076V177.432H239.536V175.86Z" fill="#DFE2E5"/>
        <path d="M239.536 180.574H216.076V182.145H239.536V180.574Z" fill="#DFE2E5"/>
        <path d="M224.387 145.38L200.585 124.095L216.573 106.052L240.374 127.337L224.387 145.38Z" fill="white"/>
        <path d="M224.387 145.38L200.585 124.095L216.573 106.052L240.374 127.337L224.387 145.38ZM201.412 124.047L224.338 144.549L239.547 127.385L216.621 106.883L201.412 124.047Z" fill="#DFE2E5"/>
        <path d="M215.357 113.773L214.317 114.946L231.84 130.616L232.88 129.443L215.357 113.773Z" fill="#DFE2E5"/>
        <path d="M212.238 117.293L211.198 118.467L228.721 134.137L229.761 132.963L212.238 117.293Z" fill="#DFE2E5"/>
        <path d="M209.119 120.815L208.079 121.988L225.602 137.658L226.642 136.485L209.119 120.815Z" fill="#DFE2E5"/>
        <path d="M49.9079 38.2873H14.3594V11.3389H49.9079V38.2873Z" fill="white"/>
        <path d="M49.9079 38.2873H14.3594V11.3389H49.9079V38.2873ZM15.0132 37.6304H49.2541V11.9957H15.0132V37.6304Z" fill="#DFE2E5"/>
        <path d="M45.2188 18.6787H19.0479V20.4315H45.2188V18.6787Z" fill="#52BAE6"/>
        <path d="M45.2188 23.9365H19.0479V25.6893H45.2188V23.9365Z" fill="#52BAE6"/>
        <path d="M45.2188 29.1953H19.0479V30.9481H45.2188V29.1953Z" fill="#52BAE6"/>
        <path d="M142.162 108.835H87.9141V67.7109H142.162V108.835Z" fill="white"/>
        <path d="M142.162 108.835H87.9141V67.7109H142.162V108.835ZM88.9118 107.833H141.164V68.7133H88.9118V107.833Z" fill="#DFE2E5"/>
        <path d="M135.007 78.9121H95.0693V81.5869H135.007V78.9121Z" fill="#52BAE6"/>
        <path d="M135.007 86.9355H95.0693V89.6104H135.007V86.9355Z" fill="#52BAE6"/>
        <path d="M135.007 94.96H95.0693V97.6348H135.007V94.96Z" fill="#52BAE6"/>
        <path d="M270.651 189H129.903C129.81 189 129.722 188.963 129.657 188.897C129.591 188.831 129.555 188.742 129.555 188.649C129.555 188.557 129.591 188.468 129.657 188.402C129.722 188.336 129.81 188.299 129.903 188.299H270.651C270.744 188.299 270.833 188.336 270.898 188.402C270.964 188.467 271 188.556 271 188.649C271 188.742 270.964 188.831 270.898 188.897C270.833 188.963 270.744 189 270.651 189Z" fill="#AEB5BC"/>
        <path d="M206.834 116.648C206.624 116.27 206.5 115.85 206.469 115.418C206.438 114.987 206.501 114.553 206.655 114.149C206.809 113.745 207.049 113.379 207.358 113.078C207.668 112.777 208.039 112.548 208.446 112.407L208.464 101.887L213.002 104.904L212.289 114.432C212.48 115.135 212.408 115.884 212.086 116.536C211.763 117.189 211.214 117.701 210.542 117.974C209.869 118.247 209.12 118.263 208.437 118.018C207.754 117.774 207.184 117.286 206.834 116.648V116.648Z" fill="#9E616A"/>
        <path d="M207.253 70.0988L209.281 68.1357L210.77 69.2156C210.77 69.2156 212.235 70.982 213.407 76.2811C214.58 81.5803 213.407 110.726 213.407 110.726L206.96 109.842L207.84 94.5338L205.202 81.5803L207.253 70.0988Z" fill="#27446E"/>
    </g>
    <defs>
        <clipPath id="clip0_4840_380741">
            <rect width="271" height="189" fill="white"/>
        </clipPath>
    </defs>
</svg>
