<svg width="191" height="30" xmlns="http://www.w3.org/2000/svg" fill="none">

 <g>
  <title>Layer 1</title>
  <path id="svg_4" fill="#52BAE6" d="m52.89,23.3034c-2.8308,0 -5.0246,-0.9907 -6.5816,-2.9723c-1.3976,-1.7515 -2.0965,-4.0515 -2.0965,-6.8999c0,-3.3793 0.9377,-5.97117 2.8131,-7.77578c1.5569,-1.50384 3.5473,-2.25576 5.9711,-2.25576c2.3,0 4.2108,0.6723 5.7323,2.01691c1.2915,1.16769 2.0346,2.60961 2.2292,4.32576l-2.0965,0c-0.2477,-1.53923 -0.9642,-2.71576 -2.1496,-3.5296c-1.0085,-0.70769 -2.2469,-1.06154 -3.7154,-1.06154c-2.1407,0 -3.8127,0.79615 -5.0157,2.38845c-1.097,1.45077 -1.6454,3.41456 -1.6454,5.89156c0,2.6892 0.6988,4.768 2.0965,6.2365c1.1677,1.2384 2.6627,1.8577 4.485,1.8577c1.7515,0 3.1846,-0.5396 4.2992,-1.6189c0.9554,-0.9377 1.5039,-2.1142 1.6454,-3.5296l2.0965,0c-0.1769,2.07 -1.0704,3.7685 -2.6803,5.0954c-1.4862,1.2208 -3.282,1.8311 -5.3873,1.8311z"/>
  <path id="svg_5" fill="#52BAE6" d="m66.0432,3.79773l0,19.10767l-1.9638,0l0,-19.10767l1.9638,0z"/>
  <path id="svg_6" fill="#52BAE6" d="m71.5547,12.8208l-2.07,0c0.1239,-1.3269 0.752,-2.3708 1.8843,-3.13155c0.9907,-0.65461 2.238,-0.98192 3.7419,-0.98192c1.7692,0 3.1492,0.47769 4.14,1.43307c0.8315,0.8315 1.2473,1.9019 1.2473,3.2111l0,9.5539l-1.6189,0l-0.2388,-2.0966c-1.0793,1.6631 -2.6716,2.4946 -4.7769,2.4946c-1.5216,0 -2.7158,-0.4069 -3.5827,-1.2207c-0.7431,-0.7077 -1.1146,-1.61 -1.1146,-2.7069c0,-1.327 0.46,-2.3531 1.38,-3.0785c0.8315,-0.6546 2.123,-1.1323 3.8746,-1.4331l4.1134,-0.69l0,-0.9553c0,-0.9731 -0.3538,-1.725 -1.0615,-2.2558c-0.6016,-0.46 -1.4154,-0.69 -2.4415,-0.69c-1.097,0 -1.955,0.2654 -2.5743,0.7961c-0.513,0.4424 -0.8138,1.0262 -0.9023,1.7516zm6.9796,5.0953l0,-2.1761l-3.5827,0.6104c-1.4684,0.2654 -2.4857,0.6546 -3.0519,1.1677c-0.4423,0.4069 -0.6634,0.9642 -0.6634,1.6719c0,0.8315 0.3184,1.4596 0.9553,1.8842c0.5308,0.3716 1.2474,0.5573 2.1497,0.5573c1.1676,0 2.1761,-0.3981 3.0253,-1.1942c0.7785,-0.7077 1.1677,-1.5481 1.1677,-2.5212z"/>
  <path id="svg_7" fill="#52BAE6" d="m86.2321,22.9054l-1.9638,0l0,-13.79999l1.6188,0l0.2654,2.36189c0.7431,-1.83997 1.9727,-2.75997 3.6888,-2.75997c0.4777,0 0.9643,0.06193 1.4596,0.18577l0,1.9638c-0.5661,-0.1592 -1.0792,-0.2388 -1.5392,-0.2388c-1.0792,0 -1.9461,0.4777 -2.6008,1.4331c-0.6192,0.9023 -0.9288,2.1053 -0.9288,3.6092l0,7.245z"/>
  <path id="svg_8" fill="#52BAE6" d="m95.4053,22.9054l-1.9904,0l0,-13.79999l1.9904,0l0,13.79999zm0.1326,-16.6396l-2.2557,0l0,-2.46807l2.2557,0l0,2.46807z"/>
  <path id="svg_9" fill="#52BAE6" d="m104.874,10.8039l-3.105,0l0,9.0495c0,1.15 0.549,1.725 1.645,1.725c0.514,0 1.053,-0.0707 1.619,-0.2123l0,1.672c-0.637,0.1769 -1.247,0.2653 -1.831,0.2653c-1.168,0 -2.043,-0.3538 -2.627,-1.0615c-0.513,-0.6015 -0.7698,-1.4154 -0.7698,-2.4415l0,-8.9965l-2.0169,0l0,-1.69849l2.0169,0l0.1327,-3.3173l1.8311,0l0,3.3173l3.105,0l0,1.69849z"/>
  <path id="svg_10" fill="#52BAE6" d="m118.608,9.10541l-4.856,13.95919c-0.708,2.0169 -1.318,3.335 -1.831,3.9542c-0.584,0.7077 -1.372,1.0615 -2.362,1.0615c-0.425,0 -0.938,-0.0796 -1.54,-0.2388l0,-1.6188c0.531,0.1415 0.982,0.2123 1.354,0.2123c0.531,0 0.946,-0.2123 1.247,-0.637c0.319,-0.4246 0.734,-1.3888 1.248,-2.8926l-0.69,0l-5.255,-13.79999l2.123,0l4.405,12.23419l4.167,-12.23419l1.99,0z"/>
  <path id="svg_11" fill="#6FBF4A" d="m17.9134,22.5073l-2.3088,0l-1.9904,-5.1219l-9.3946,0l-2.04345,5.1219l-2.17615,0l7.7492,-19.10764l2.4415,0l7.7227,19.10764zm-8.96997,-17.03765l-4.06037,10.19075l8.04114,0l-3.98077,-10.19075z"/>
  <path id="svg_12" fill="#6FBF4A" d="m20.1059,3.39966l6.3162,0c2.4238,0 4.2549,0.60153 5.4934,1.80461c1.0792,1.04384 1.6188,2.47691 1.6188,4.29921c0,1.99922 -0.7165,3.52072 -2.1496,4.56462c-1.2561,0.9023 -2.9457,1.3534 -5.0688,1.3534l-4.14,0l0,7.0858l-2.07,0l0,-19.10764zm6.3692,1.72499l-4.2992,0l0,8.57185l4.1931,0c1.7515,0 3.0519,-0.4157 3.9011,-1.2473c0.7254,-0.7076 1.0881,-1.6896 1.0881,-2.94572c0,-1.48614 -0.4777,-2.6096 -1.4331,-3.37037c-0.8492,-0.67231 -1.9992,-1.00846 -3.45,-1.00846z"/>
  <path id="svg_13" fill="#6FBF4A" d="m36.7702,3.39966l2.0699,0l0,19.10764l-2.0699,0l0,-19.10764z"/>
 </g>
</svg>