<svg width="254" height="215" viewBox="0 0 254 215" fill="none" xmlns="http://www.w3.org/2000/svg">
    <path d="M155.85 100.73H80.6215C80.2522 100.729 79.8981 100.582 79.637 100.321C79.3758 100.06 79.2289 99.7052 79.2285 99.3356V80.6613C79.229 80.2917 79.3759 79.9374 79.6371 79.6761C79.8982 79.4147 80.2522 79.2677 80.6215 79.2672H155.85C156.219 79.2677 156.573 79.4147 156.834 79.6761C157.095 79.9374 157.242 80.2917 157.243 80.6613V99.336C157.242 99.7055 157.095 100.06 156.834 100.321C156.573 100.582 156.219 100.73 155.85 100.73V100.73ZM80.6215 79.8247C80.3999 79.8249 80.1874 79.9131 80.0306 80.0699C79.8739 80.2268 79.7858 80.4394 79.7856 80.6613V99.3359C79.7858 99.5578 79.8739 99.7704 80.0306 99.9273C80.1874 100.084 80.3999 100.172 80.6215 100.173H155.85C156.071 100.172 156.284 100.084 156.441 99.9273C156.597 99.7704 156.686 99.5578 156.686 99.3359V80.6613C156.686 80.4394 156.597 80.2268 156.441 80.0699C156.284 79.9131 156.071 79.8249 155.85 79.8247H80.6215Z" fill="#E6E6E6"/>
    <path d="M103.887 85.9924C103.629 85.9924 103.381 86.0952 103.198 86.2783C103.015 86.4613 102.912 86.7095 102.912 86.9684C102.912 87.2272 103.015 87.4754 103.198 87.6585C103.381 87.8415 103.629 87.9443 103.887 87.9443H149.86C150.118 87.9542 150.37 87.8609 150.56 87.685C150.75 87.5091 150.862 87.265 150.872 87.0063C150.882 86.7476 150.789 86.4955 150.613 86.3056C150.437 86.1157 150.193 86.0034 149.935 85.9935C149.92 85.9929 149.906 85.9927 149.892 85.9928H103.887V85.9924Z" fill="#E6E6E6"/>
    <path d="M103.887 91.8469C103.629 91.8469 103.381 91.9497 103.198 92.1328C103.015 92.3158 102.912 92.564 102.912 92.8229C102.912 93.0817 103.015 93.3299 103.198 93.513C103.381 93.696 103.629 93.7988 103.887 93.7988H149.86C150.118 93.8087 150.37 93.7155 150.56 93.5395C150.75 93.3636 150.862 93.1195 150.872 92.8608C150.882 92.6021 150.789 92.35 150.613 92.1601C150.437 91.9702 150.193 91.8579 149.935 91.848C149.92 91.8474 149.906 91.8472 149.892 91.8473H103.887V91.8469Z" fill="#E6E6E6"/>
    <path d="M155.85 131.856H80.6215C80.2522 131.856 79.8981 131.709 79.637 131.447C79.3758 131.186 79.2289 130.832 79.2285 130.462V111.788C79.229 111.418 79.3759 111.064 79.6371 110.802C79.8982 110.541 80.2522 110.394 80.6215 110.394H155.85C156.219 110.394 156.573 110.541 156.834 110.802C157.095 111.064 157.242 111.418 157.243 111.788V130.462C157.242 130.832 157.095 131.186 156.834 131.447C156.573 131.709 156.219 131.856 155.85 131.856ZM80.6215 110.951C80.3999 110.951 80.1874 111.039 80.0306 111.196C79.8739 111.353 79.7858 111.566 79.7856 111.788V130.462C79.7858 130.684 79.8739 130.897 80.0306 131.054C80.1874 131.21 80.3999 131.299 80.6215 131.299H155.85C156.071 131.299 156.284 131.21 156.441 131.054C156.597 130.897 156.686 130.684 156.686 130.462V111.788C156.686 111.566 156.597 111.353 156.441 111.196C156.284 111.039 156.071 110.951 155.85 110.951H80.6215Z" fill="#E6E6E6"/>
    <path d="M103.887 117.22C103.629 117.22 103.381 117.323 103.198 117.506C103.015 117.689 102.912 117.937 102.912 118.196C102.912 118.455 103.015 118.703 103.198 118.886C103.381 119.069 103.629 119.172 103.887 119.172H149.86C150.115 119.17 150.359 119.069 150.54 118.89C150.722 118.71 150.825 118.467 150.83 118.212C150.834 117.956 150.738 117.71 150.563 117.525C150.387 117.339 150.146 117.23 149.892 117.22H103.887V117.22Z" fill="#E6E6E6"/>
    <path d="M103.887 123.076C103.629 123.076 103.381 123.179 103.198 123.362C103.015 123.545 102.912 123.793 102.912 124.052C102.912 124.311 103.015 124.559 103.198 124.742C103.381 124.925 103.629 125.028 103.887 125.028H149.86C150.115 125.026 150.359 124.925 150.54 124.746C150.722 124.566 150.825 124.323 150.83 124.068C150.834 123.813 150.738 123.566 150.563 123.381C150.387 123.195 150.146 123.086 149.892 123.076H103.887V123.076Z" fill="#E6E6E6"/>
    <path d="M155.85 163.084H80.6215C80.2522 163.084 79.8981 162.937 79.637 162.675C79.3758 162.414 79.2289 162.06 79.2285 161.69V143.016C79.229 142.646 79.3759 142.292 79.6371 142.03C79.8982 141.769 80.2522 141.622 80.6215 141.622H155.85C156.219 141.622 156.573 141.769 156.834 142.03C157.095 142.292 157.242 142.646 157.243 143.016V161.69C157.242 162.06 157.095 162.414 156.834 162.676C156.573 162.937 156.219 163.084 155.85 163.084V163.084ZM80.6215 142.179C80.3999 142.179 80.1874 142.267 80.0306 142.424C79.8739 142.581 79.7858 142.794 79.7856 143.016V161.69C79.7858 161.912 79.8739 162.125 80.0306 162.282C80.1874 162.439 80.3999 162.527 80.6215 162.527H155.85C156.071 162.527 156.284 162.439 156.441 162.282C156.597 162.125 156.686 161.912 156.686 161.69V143.016C156.686 142.794 156.597 142.581 156.441 142.424C156.284 142.267 156.071 142.179 155.85 142.179H80.6215Z" fill="#E6E6E6"/>
    <path d="M103.887 148.449C103.629 148.449 103.381 148.552 103.198 148.735C103.015 148.918 102.912 149.166 102.912 149.425C102.912 149.684 103.015 149.932 103.198 150.115C103.381 150.298 103.629 150.401 103.887 150.401H149.86C149.988 150.406 150.116 150.386 150.236 150.341C150.356 150.297 150.466 150.229 150.56 150.142C150.654 150.055 150.73 149.95 150.783 149.833C150.837 149.717 150.867 149.591 150.872 149.463C150.877 149.335 150.856 149.207 150.812 149.087C150.768 148.967 150.7 148.856 150.613 148.762C150.526 148.668 150.421 148.592 150.305 148.539C150.188 148.485 150.063 148.455 149.935 148.45C149.92 148.45 149.906 148.449 149.892 148.449H103.887V148.449Z" fill="#E6E6E6"/>
    <path d="M103.887 154.305C103.629 154.305 103.381 154.408 103.198 154.591C103.015 154.774 102.912 155.022 102.912 155.281C102.912 155.539 103.015 155.788 103.198 155.971C103.381 156.154 103.629 156.257 103.887 156.257H149.86C149.988 156.262 150.116 156.241 150.236 156.197C150.356 156.152 150.466 156.084 150.56 155.997C150.654 155.91 150.73 155.805 150.783 155.689C150.837 155.573 150.867 155.447 150.872 155.319C150.877 155.19 150.856 155.063 150.812 154.942C150.768 154.822 150.7 154.712 150.613 154.618C150.526 154.524 150.421 154.448 150.305 154.394C150.188 154.341 150.063 154.311 149.935 154.306C149.92 154.305 149.906 154.305 149.892 154.305H103.887V154.305Z" fill="#E6E6E6"/>
    <path d="M253.336 215H0.663206C0.297198 215 0 214.829 0 214.617C0 214.406 0.297198 214.234 0.663206 214.234H253.337C253.703 214.234 254 214.406 254 214.617C254 214.829 253.702 215 253.336 215Z" fill="#E6E6E6"/>
    <path d="M90.0073 95.7391C93.2387 95.7391 95.8583 93.1176 95.8583 89.8838C95.8583 86.65 93.2387 84.0284 90.0073 84.0284C86.7758 84.0284 84.1562 86.65 84.1562 89.8838C84.1562 93.1176 86.7758 95.7391 90.0073 95.7391Z" fill="#52BAE6"/>
    <path d="M87.2059 88.79C87.1385 88.79 87.084 89.227 87.084 89.7658C87.084 90.3046 87.1385 90.7419 87.2059 90.7419H92.9591C93.0265 90.7507 93.0821 90.3211 93.0832 89.7823C93.1206 89.4468 93.0795 89.1072 92.9632 88.7904H87.2059V88.79Z" fill="#E6E6E6"/>
    <path d="M90.0073 126.98C93.2387 126.98 95.8583 124.359 95.8583 121.125C95.8583 117.891 93.2387 115.269 90.0073 115.269C86.7758 115.269 84.1562 117.891 84.1562 121.125C84.1562 124.359 86.7758 126.98 90.0073 126.98Z" fill="#52BAE6"/>
    <path d="M87.2059 120.031C87.1385 120.031 87.084 120.468 87.084 121.007C87.084 121.546 87.1385 121.983 87.2059 121.983H92.9591C93.0265 121.992 93.0821 121.562 93.0832 121.023C93.1206 120.688 93.0795 120.348 92.9632 120.031H87.2059V120.031Z" fill="#E6E6E6"/>
    <path d="M90.0073 158.208C93.2387 158.208 95.8583 155.587 95.8583 152.353C95.8583 149.119 93.2387 146.498 90.0073 146.498C86.7758 146.498 84.1562 149.119 84.1562 152.353C84.1562 155.587 86.7758 158.208 90.0073 158.208Z" fill="#52BAE6"/>
    <path d="M87.2059 151.259C87.1385 151.259 87.084 151.696 87.084 152.235C87.084 152.774 87.1385 153.211 87.2059 153.211H92.9591C93.0265 153.22 93.0821 152.79 93.0832 152.251C93.1206 151.916 93.0795 151.576 92.9632 151.26H87.2059V151.259Z" fill="#E6E6E6"/>
    <path d="M136.223 48.012C135.919 48.013 135.621 47.9297 135.362 47.7713C135.103 47.6129 134.892 47.3856 134.754 47.1147C133.581 44.8183 131.96 42.7796 129.989 41.1184C128.017 39.4572 125.733 38.2069 123.272 37.4409C122.264 37.1349 121.236 36.9019 120.195 36.7436L119.982 36.7114L130.933 2.44739L131.118 2.45383C152.394 8.23916 164.566 25.3028 167.79 30.3947C167.913 30.5893 167.994 30.8076 168.027 31.0354C168.06 31.2633 168.046 31.4955 167.984 31.7173C167.922 31.939 167.814 32.1452 167.667 32.3227C167.521 32.5001 167.338 32.6448 167.132 32.7474L136.962 47.8371C136.733 47.9521 136.48 48.012 136.223 48.012Z" fill="#E6E6E6"/>
    <path d="M195.112 146.239C195.195 145.885 195.355 145.555 195.58 145.27C195.804 144.985 196.089 144.753 196.413 144.591C196.737 144.428 197.093 144.338 197.455 144.328C197.818 144.317 198.178 144.387 198.511 144.531L204.469 138.03L205.582 142.476L199.753 147.968C199.475 148.511 199.006 148.934 198.437 149.155C197.868 149.376 197.237 149.38 196.665 149.167C196.092 148.954 195.618 148.538 195.332 147.998C195.046 147.458 194.967 146.832 195.112 146.238L195.112 146.239Z" fill="#FEB8B8"/>
    <path d="M207.908 211.086H204.268L202.536 197.033H207.911L207.908 211.086Z" fill="#FEB8B8"/>
    <path d="M208.837 209.896H201.667C200.455 209.896 199.293 210.378 198.436 211.235C197.579 212.093 197.098 213.256 197.098 214.469V214.617H208.836L208.837 209.896Z" fill="#2F2E41"/>
    <path d="M228.816 207.477L225.412 208.77L218.81 196.246L223.833 194.339L228.816 207.477Z" fill="#FEB8B8"/>
    <path d="M229.263 206.035L222.56 208.581C221.427 209.011 220.511 209.874 220.014 210.98C219.517 212.086 219.48 213.344 219.91 214.478L219.963 214.617L230.938 210.448L229.263 206.035Z" fill="#2F2E41"/>
    <path d="M216.832 164.342L219.849 180.589C219.849 180.589 228.038 203.448 227.463 204.023C226.888 204.598 218.987 206.611 219.418 205.317C219.849 204.024 209.936 184.614 209.936 184.614L216.832 164.342Z" fill="#2F2E41"/>
    <path d="M204.597 134.819C204.597 134.819 198.506 142.786 199.305 143.221C200.103 143.656 203.194 145.96 203.194 145.96L206.34 137.321L204.597 134.819Z" fill="#E4E4E4"/>
    <path d="M202.896 142.861C202.896 142.861 201.89 150.337 202.321 151.918C202.752 153.5 202.465 198.357 202.178 199.075C201.891 199.794 201.028 202.238 201.46 203.388C201.891 204.538 207.781 207.414 208.643 206.408C209.505 205.401 215.827 168.739 215.827 168.739C215.827 168.739 224.734 146.599 222.723 144.442C220.711 142.286 202.896 142.861 202.896 142.861Z" fill="#2F2E41"/>
    <path d="M215.822 94.8122C219.71 94.8122 222.862 91.6581 222.862 87.7674C222.862 83.8766 219.71 80.7225 215.822 80.7225C211.934 80.7225 208.782 83.8766 208.782 87.7674C208.782 91.6581 211.934 94.8122 215.822 94.8122Z" fill="#FEB8B8"/>
    <path d="M208.466 103.689C208.643 102.548 209.21 101.505 210.07 100.735L211.354 96.8081H218.896L220.998 100.109C223.271 101.088 224.956 102.642 225.02 104.473C225.367 105.69 223.87 144.298 223.439 145.736C223.313 146.154 221.594 146.378 219.178 146.478C216.963 146.568 214.163 146.555 211.475 146.493C207.024 146.39 202.875 146.151 202.177 146.023C200.598 145.736 208.309 104.596 208.466 103.689Z" fill="#E4E4E4"/>
    <path d="M215.135 154.887C215.44 154.692 215.699 154.432 215.894 154.125C216.088 153.819 216.213 153.474 216.259 153.114C216.306 152.754 216.273 152.388 216.163 152.043C216.053 151.697 215.869 151.379 215.623 151.113L219.786 143.337L215.224 143.754L211.971 151.073C211.55 151.516 211.306 152.098 211.286 152.709C211.265 153.32 211.469 153.917 211.859 154.387C212.249 154.858 212.798 155.168 213.402 155.26C214.006 155.352 214.623 155.219 215.135 154.887L215.135 154.887Z" fill="#FEB8B8"/>
    <path d="M215.826 99.4416C215.826 99.4416 209.217 102.173 211.66 109.075C214.102 115.977 216.832 124.171 216.832 124.171C216.832 124.171 213.384 142.718 213.384 143.437C213.384 144.157 211.229 148.038 212.091 148.757C212.952 149.476 218.699 150.914 218.843 150.195C219.283 148.539 219.811 146.907 220.423 145.307C220.711 144.732 227.463 126.76 226.6 125.178C225.966 124.015 225.409 113.351 225.159 107.801C225.102 106.218 224.633 104.677 223.799 103.329C222.965 101.982 221.796 100.875 220.405 100.118C219.067 99.4053 217.507 99.021 215.826 99.4416Z" fill="#E4E4E4"/>
    <path d="M218.53 90.9159C217.996 90.6692 217.376 90.6181 216.798 90.4647C214.73 89.9157 213.344 87.8721 213.787 86.0228C213.868 85.7876 213.905 85.5393 213.895 85.2906C213.818 84.7429 213.177 84.3894 212.562 84.2639C211.947 84.1384 211.293 84.1568 210.706 83.9548C210.281 83.8041 209.904 83.5415 209.615 83.1946C209.326 82.8478 209.136 82.4295 209.065 81.9837C208.974 81.1177 209.195 80.2475 209.687 79.5297L209.909 80.0884C210.239 79.85 210.491 79.5202 210.635 79.1398C210.876 79.1687 211.107 79.257 211.305 79.3967C211.504 79.5364 211.665 79.7232 211.774 79.9404C212.131 80.1243 212.182 79.3697 212.576 79.2583C212.748 79.2393 212.92 79.2769 213.068 79.3654C213.861 79.6889 214.783 79.4122 215.635 79.2329C217.114 78.9239 218.64 78.9224 220.119 79.2284C221.099 79.4325 222.069 79.7884 222.77 80.4205C223.307 80.9487 223.729 81.5829 224.009 82.2829C224.761 83.9371 225.258 85.7271 225.01 87.4937C224.784 88.9761 224.087 90.3461 223.021 91.4005C222.454 91.9723 220.601 93.967 219.586 93.6271C218.308 93.199 220.034 91.6108 218.53 90.9159Z" fill="#2F2E41"/>
    <path d="M117.847 54.5285C119.464 54.5285 120.775 53.2166 120.775 51.5983C120.775 49.98 119.464 48.6681 117.847 48.6681C116.23 48.6681 114.919 49.98 114.919 51.5983C114.919 53.2166 116.23 54.5285 117.847 54.5285Z" fill="#3F3D56"/>
    <path d="M98.1963 47.9693C97.9283 47.9689 97.6644 47.903 97.4277 47.7772L67.4322 31.9414C67.2333 31.8364 67.0579 31.6916 66.917 31.5161C66.776 31.3407 66.6725 31.1382 66.6128 30.9211C66.5531 30.704 66.5384 30.477 66.5698 30.2541C66.6011 30.0311 66.6777 29.817 66.7949 29.6248C70.8017 23.1979 75.8756 17.5028 81.798 12.7851C92.1566 4.56927 103.939 0.447392 116.817 0.516604C121.647 0.537996 126.453 1.18918 131.115 2.4537L131.299 2.50378L120.346 36.7658L120.192 36.7425C119.205 36.5936 118.21 36.5053 117.213 36.4782C106.068 36.1634 101.238 43.7584 99.6783 47.0379C99.5844 47.2368 99.4509 47.4144 99.286 47.5599C99.1211 47.7054 98.9283 47.8157 98.7193 47.884C98.5507 47.9403 98.3741 47.9691 98.1963 47.9693Z" fill="#52BAE6"/>
    <path d="M131.071 2.63062L123.326 37.2659C122.31 36.9571 121.273 36.7221 120.223 36.5626L131.067 2.63062H131.071Z" fill="#3F3D56"/>
</svg>
