<svg width="311" height="177" viewBox="0 0 311 177" fill="none" xmlns="http://www.w3.org/2000/svg">
    <path d="M309.168 135.473C309.705 144.142 275.763 159.926 129.595 168.157C78.1484 160.578 2.05072 167.684 1.51431 159.016C0.977901 150.347 23.3047 136.289 171.806 134.006C226.055 128.08 308.632 126.804 309.168 135.473Z" fill="#EEF7FC"/>
    <g clip-path="url(#clip0)">
    <path d="M219.448 125.776C217.699 125.776 216.023 126.471 214.786 127.707C213.55 128.943 212.855 130.62 212.855 132.369C212.855 134.117 213.55 135.794 214.786 137.03C216.023 138.266 217.699 138.961 219.448 138.961H219.448C221.196 138.961 222.873 138.266 224.109 137.03C225.346 135.794 226.04 134.117 226.04 132.369C226.04 130.62 225.346 128.944 224.109 127.707C222.873 126.471 221.196 125.776 219.448 125.776Z" fill="#CCCCCC"/>
    <path d="M218.822 135.107C218.648 135.107 218.479 135.051 218.34 134.947L218.332 134.94L216.519 133.553C216.435 133.489 216.364 133.409 216.311 133.317C216.258 133.226 216.224 133.124 216.21 133.019C216.196 132.915 216.203 132.808 216.23 132.706C216.258 132.603 216.305 132.508 216.369 132.424C216.434 132.34 216.514 132.269 216.606 132.216C216.697 132.163 216.799 132.129 216.903 132.115C217.008 132.101 217.115 132.108 217.217 132.136C217.319 132.163 217.415 132.21 217.499 132.275L218.673 133.175L221.448 129.555C221.513 129.471 221.593 129.401 221.684 129.348C221.776 129.295 221.877 129.261 221.982 129.247C222.087 129.233 222.193 129.24 222.295 129.267C222.398 129.294 222.493 129.342 222.577 129.406L222.578 129.406L222.56 129.43L222.578 129.406C222.747 129.536 222.858 129.728 222.886 129.94C222.914 130.152 222.857 130.366 222.727 130.535L219.463 134.791C219.388 134.89 219.291 134.969 219.179 135.023C219.068 135.078 218.946 135.106 218.822 135.106L218.822 135.107Z" fill="white"/>
    <path d="M205.095 136.325L201.973 136.324L200.489 124.285L205.096 124.286L205.095 136.325Z" fill="#FFB8B8"/>
    <path d="M199.743 135.432H205.763V139.222H195.953C195.953 138.725 196.051 138.232 196.242 137.772C196.432 137.312 196.711 136.894 197.063 136.542C197.415 136.191 197.833 135.911 198.293 135.721C198.753 135.53 199.245 135.432 199.743 135.432Z" fill="#2F2E41"/>
    <path d="M192.672 136.325L189.551 136.324L188.066 124.285L192.673 124.286L192.672 136.325Z" fill="#FFB8B8"/>
    <path d="M187.321 135.432H193.341V139.222H183.531C183.531 138.725 183.629 138.232 183.82 137.772C184.01 137.312 184.289 136.894 184.641 136.542C184.993 136.191 185.411 135.911 185.871 135.721C186.331 135.53 186.824 135.432 187.321 135.432Z" fill="#2F2E41"/>
    <path d="M207.499 94.7023C207.248 94.4248 207.061 94.0957 206.95 93.738C206.84 93.3803 206.81 93.0028 206.861 92.6321C206.913 92.2614 207.045 91.9065 207.248 91.5923C207.452 91.2782 207.722 91.0125 208.039 90.8139L207.072 85.044L210.435 83.6013L211.686 91.7687C211.984 92.3238 212.068 92.969 211.923 93.5821C211.777 94.1951 211.412 94.7335 210.896 95.0951C210.379 95.4567 209.749 95.6164 209.123 95.544C208.497 95.4716 207.919 95.1721 207.499 94.7023V94.7023Z" fill="#FFB8B8"/>
    <path d="M181.169 91.9759C181.462 91.7438 181.702 91.4501 181.869 91.1156C182.037 90.781 182.13 90.4137 182.14 90.0396C182.151 89.6655 182.079 89.2936 181.93 88.9502C181.781 88.6067 181.559 88.3001 181.279 88.0518L183.186 82.5209L180.107 80.5425L177.524 88.391C177.139 88.8892 176.949 89.5116 176.991 90.1403C177.034 90.769 177.305 91.3603 177.754 91.8022C178.204 92.2441 178.799 92.5058 179.429 92.5378C180.058 92.5699 180.677 92.3699 181.169 91.9759Z" fill="#FFB8B8"/>
    <path d="M197.155 51.2303C200.858 51.2303 203.861 48.228 203.861 44.5246C203.861 40.8211 200.858 37.8188 197.155 37.8188C193.451 37.8188 190.449 40.8211 190.449 44.5246C190.449 48.228 193.451 51.2303 197.155 51.2303Z" fill="#FFB8B8"/>
    <path d="M180.962 87.8378C180.847 87.8378 180.732 87.8216 180.622 87.7897L178.667 87.2286C178.355 87.1384 178.091 86.9285 177.934 86.6445C177.776 86.3606 177.736 86.0257 177.824 85.713L181.858 71.4716L187.483 57.6634C188.042 56.2907 189.211 55.3904 190.532 55.314C191.136 55.2845 191.735 55.4307 192.258 55.7349C192.78 56.039 193.203 56.4881 193.475 57.0278C193.778 57.6053 193.944 58.2445 193.961 58.8963C193.977 59.548 193.845 60.195 193.572 60.7874L187.179 74.769L182.096 87.0778C182.004 87.3026 181.847 87.4948 181.645 87.6301C181.443 87.7654 181.205 87.8377 180.962 87.8378Z" fill="#02BCEA"/>
    <path d="M200.939 50.1481L197.213 50.2143C196.825 50.2219 196.44 50.1383 196.091 49.9701C195.741 49.8019 195.435 49.5538 195.199 49.2459C194.963 48.938 194.802 48.5788 194.73 48.1974C194.658 47.816 194.676 47.423 194.784 47.05C194.864 46.7806 194.924 46.5057 194.963 46.2275C195.005 45.9241 195.013 45.6171 194.988 45.3119C194.964 45.0063 194.837 44.7178 194.628 44.4937C194.419 44.2696 194.14 44.1232 193.837 44.0785C193.534 44.0339 193.224 44.0935 192.959 44.2477C192.694 44.402 192.49 44.6416 192.379 44.9274C191.753 44.9363 190.418 44.7321 189.791 44.741C188.461 41.331 191.36 36.8689 194.48 35.1929C197.661 33.4843 201.791 35.2226 203.01 38.7836C204.702 38.814 206.077 40.4831 206.295 42.3619C206.513 44.2408 205.74 46.2027 204.558 47.6427C203.376 49.0827 201.823 50.1323 200.939 50.1481Z" fill="#2F2E41"/>
    <path d="M188.691 135.201C188.389 135.199 188.099 135.087 187.874 134.885C187.65 134.683 187.507 134.406 187.473 134.106L186.091 87.6277L203.506 88.8674L203.52 88.9793C207.455 121.923 206.11 133.327 206.096 133.438C206.086 133.607 206.042 133.771 205.966 133.922C205.889 134.073 205.783 134.206 205.653 134.314C205.523 134.421 205.372 134.501 205.21 134.548C205.048 134.595 204.877 134.608 204.71 134.586L200.861 134.678C200.57 134.645 200.299 134.508 200.1 134.293C199.9 134.078 199.784 133.798 199.772 133.505L196.176 99.8413C196.154 99.7539 196.102 99.6771 196.028 99.6244C195.955 99.5716 195.866 99.5464 195.776 99.553C195.683 99.5527 195.593 99.5846 195.522 99.6432C195.45 99.7019 195.401 99.7836 195.383 99.8744L193.994 133.648C194.008 133.962 193.902 134.269 193.697 134.506C193.491 134.744 193.203 134.893 192.89 134.923L188.813 135.194C188.773 135.199 188.732 135.201 188.691 135.201Z" fill="#2F2E41"/>
    <path d="M195.918 93.1812C195.814 93.1812 195.71 93.1796 195.605 93.1764C190.598 93.0257 186.68 89.2369 185.598 88.0792C185.461 87.9317 185.362 87.7523 185.31 87.5571C185.258 87.3619 185.256 87.157 185.303 86.9606L188.192 74.739L187.426 64.1138C187.305 62.6391 187.499 61.1557 187.993 59.7612C188.487 58.3667 189.272 57.0927 190.294 56.0232C191.146 55.1233 192.181 54.417 193.33 53.9523C194.479 53.4875 195.714 53.2752 196.952 53.3296C201.827 53.5623 205.673 57.9196 205.707 63.2492C205.761 71.504 205.518 72.0712 205.438 72.2575C203.006 77.9355 204.334 85.9057 204.8 88.2134C204.841 88.4192 204.829 88.6323 204.765 88.8324C204.702 89.0325 204.588 89.2129 204.434 89.3566C201.759 91.8954 198.895 93.1811 195.918 93.1812Z" fill="#02BCEA"/>
    <path d="M208.494 90.0746C208.216 90.0744 207.947 89.9799 207.73 89.8067C207.512 89.6334 207.36 89.3915 207.298 89.1206L204.318 76.1364L200.323 61.2956C200.153 60.6664 200.129 60.0063 200.253 59.3663C200.377 58.7263 200.647 58.1233 201.041 57.6037C201.399 57.1167 201.89 56.7439 202.455 56.5302C203.02 56.3165 203.635 56.2711 204.226 56.3996C205.517 56.6934 206.521 57.7743 206.846 59.2206L210.109 73.7534L211.737 88.4805C211.772 88.8034 211.678 89.1272 211.476 89.3811C211.273 89.635 210.978 89.7985 210.655 89.836L208.635 90.0665C208.588 90.0719 208.541 90.0746 208.494 90.0746Z" fill="#02BCEA"/>
    <path d="M122.701 14.1972H49.8037C47.921 14.1972 46.1154 13.4493 44.7842 12.118C43.453 10.7868 42.7051 8.98125 42.7051 7.09859C42.7051 5.21593 43.453 3.41037 44.7842 2.07913C46.1154 0.747883 47.921 0 49.8037 0H122.701C124.583 0 126.389 0.747883 127.72 2.07913C129.051 3.41037 129.799 5.21593 129.799 7.09859C129.799 8.98125 129.051 10.7868 127.72 12.118C126.389 13.4493 124.583 14.1972 122.701 14.1972Z" fill="#E6E6E6"/>
    <path d="M49.8033 2.3208C48.5361 2.3208 47.3208 2.82418 46.4248 3.72021C45.5288 4.61624 45.0254 5.83152 45.0254 7.0987C45.0254 8.36587 45.5288 9.58115 46.4248 10.4772C47.3208 11.3732 48.5361 11.8766 49.8033 11.8766H122.7C123.967 11.8766 125.183 11.3732 126.079 10.4772C126.975 9.58115 127.478 8.36587 127.478 7.0987C127.478 5.83152 126.975 4.61624 126.079 3.72021C125.183 2.82418 123.967 2.3208 122.7 2.3208H49.8033Z" fill="white"/>
    <path d="M148.461 0.458984C146.713 0.458978 145.036 1.15352 143.8 2.38981C142.564 3.6261 141.869 5.30288 141.869 7.05127C141.869 8.79966 142.564 10.4764 143.8 11.7127C145.036 12.9491 146.713 13.6436 148.461 13.6436H148.461C150.21 13.6436 151.887 12.9491 153.123 11.7128C154.359 10.4765 155.054 8.79969 155.054 7.0513C155.054 5.30291 154.359 3.62613 153.123 2.38983C151.887 1.15353 150.21 0.458984 148.461 0.458984Z" fill="#02BCEA"/>
    <path d="M147.836 9.78899C147.663 9.78928 147.494 9.73313 147.355 9.62902L147.346 9.62257L145.534 8.23576C145.45 8.17141 145.379 8.09114 145.326 7.99953C145.273 7.90792 145.239 7.80677 145.225 7.70186C145.211 7.59695 145.218 7.49033 145.245 7.3881C145.272 7.28586 145.32 7.19001 145.384 7.10603C145.448 7.02204 145.529 6.95156 145.62 6.89862C145.712 6.84568 145.813 6.81131 145.918 6.79747C146.023 6.78363 146.13 6.79061 146.232 6.81798C146.334 6.84536 146.43 6.89261 146.514 6.95703L147.688 7.8575L150.463 4.23746C150.527 4.15353 150.607 4.0831 150.699 4.03018C150.791 3.97727 150.892 3.9429 150.997 3.92905C151.101 3.91521 151.208 3.92214 151.31 3.94947C151.412 3.9768 151.508 4.02398 151.592 4.08833L151.592 4.0885L151.575 4.11241L151.593 4.0885C151.762 4.21864 151.873 4.41062 151.901 4.62234C151.929 4.83406 151.871 5.04821 151.742 5.21779L148.478 9.47385C148.402 9.57191 148.305 9.65126 148.194 9.70575C148.083 9.76024 147.961 9.78839 147.837 9.78803L147.836 9.78899Z" fill="white"/>
    <path d="M122.701 38.2231H49.8037C47.921 38.2231 46.1154 37.4752 44.7842 36.1439C43.453 34.8127 42.7051 33.0071 42.7051 31.1245C42.7051 29.2418 43.453 27.4363 44.7842 26.105C46.1154 24.7738 47.921 24.0259 49.8037 24.0259H122.701C124.583 24.0259 126.389 24.7738 127.72 26.105C129.051 27.4363 129.799 29.2418 129.799 31.1245C129.799 33.0071 129.051 34.8127 127.72 36.1439C126.389 37.4752 124.583 38.2231 122.701 38.2231Z" fill="#E6E6E6"/>
    <path d="M49.8033 26.3467C48.5361 26.3467 47.3208 26.8501 46.4248 27.7461C45.5288 28.6421 45.0254 29.8574 45.0254 31.1246C45.0254 32.3917 45.5288 33.607 46.4248 34.5031C47.3208 35.3991 48.5361 35.9025 49.8033 35.9025H122.7C123.967 35.9025 125.183 35.3991 126.079 34.5031C126.975 33.607 127.478 32.3917 127.478 31.1246C127.478 29.8574 126.975 28.6421 126.079 27.7461C125.183 26.8501 123.967 26.3467 122.7 26.3467H49.8033Z" fill="white"/>
    <path d="M148.461 24.4849C146.713 24.4849 145.036 25.1794 143.8 26.4157C142.564 27.652 141.869 29.3288 141.869 31.0772C141.869 32.8256 142.564 34.5023 143.8 35.7386C145.036 36.9749 146.713 37.6695 148.461 37.6695H148.461C150.21 37.6695 151.887 36.975 153.123 35.7387C154.359 34.5024 155.054 32.8256 155.054 31.0772C155.054 29.3288 154.359 27.652 153.123 26.4157C151.887 25.1794 150.21 24.4849 148.461 24.4849Z" fill="#E6E6E6"/>
    <path d="M122.701 62.2492H49.8037C47.921 62.2492 46.1154 61.5013 44.7842 60.17C43.453 58.8388 42.7051 57.0333 42.7051 55.1506C42.7051 53.2679 43.453 51.4624 44.7842 50.1311C46.1154 48.7999 47.921 48.052 49.8037 48.052H122.701C124.583 48.052 126.389 48.7999 127.72 50.1311C129.051 51.4624 129.799 53.2679 129.799 55.1506C129.799 57.0333 129.051 58.8388 127.72 60.17C126.389 61.5013 124.583 62.2492 122.701 62.2492Z" fill="#E6E6E6"/>
    <path d="M49.8033 50.3726C48.5361 50.3726 47.3208 50.8759 46.4248 51.772C45.5288 52.668 45.0254 53.8833 45.0254 55.1505C45.0254 56.4176 45.5288 57.6329 46.4248 58.5289C47.3208 59.425 48.5361 59.9283 49.8033 59.9283H122.7C123.967 59.9283 125.183 59.425 126.079 58.5289C126.975 57.6329 127.478 56.4176 127.478 55.1505C127.478 53.8833 126.975 52.668 126.079 51.772C125.183 50.8759 123.967 50.3726 122.7 50.3726H49.8033Z" fill="white"/>
    <path d="M148.461 48.511C146.713 48.511 145.036 49.2055 143.8 50.4418C142.564 51.6781 141.869 53.3549 141.869 55.1033C141.869 56.8517 142.564 58.5285 143.8 59.7648C145.036 61.0011 146.713 61.6956 148.461 61.6956H148.461C150.21 61.6956 151.887 61.0011 153.123 59.7648C154.359 58.5285 155.054 56.8517 155.054 55.1033C155.054 53.3549 154.359 51.6781 153.123 50.4418C151.887 49.2055 150.21 48.511 148.461 48.511Z" fill="#E6E6E6"/>
    <path d="M230.308 139.378H173.247C173.174 139.378 173.105 139.349 173.054 139.298C173.002 139.247 172.974 139.177 172.974 139.105C172.974 139.033 173.002 138.963 173.054 138.912C173.105 138.861 173.174 138.832 173.247 138.832H230.308C230.381 138.832 230.45 138.861 230.501 138.912C230.553 138.963 230.581 139.033 230.581 139.105C230.581 139.177 230.553 139.247 230.501 139.298C230.45 139.349 230.381 139.378 230.308 139.378Z" fill="#CCCCCC"/>
    </g>
    <defs>
        <clipPath id="clip0">
        <rect width="187.876" height="139.378" fill="white" transform="translate(42.7051)"/>
        </clipPath>
    </defs>
</svg>